<svg width="108" height="135" viewBox="0 0 108 135" fill="none" xmlns="http://www.w3.org/2000/svg">
<path d="M19.0039 117.691H16.0977V50.957H16.2344C17.0195 46.3437 21 42.9609 25.6797 42.9336H57.7497V45.7305L25.6797 45.7266C21.9883 45.7461 18.9844 48.6954 18.8906 52.3828V109.078C20.6914 107.281 23.1328 106.273 25.6797 106.285H79.9417V80.6718H82.7386V109.051H25.6796C21.9335 109.059 18.8984 112.09 18.8905 115.836V116.078L19.0039 117.691Z" fill="#5FCFDD"/>
<path d="M82.7381 125.41H41.9141C41.1406 125.41 40.5157 124.785 40.5157 124.012C40.5157 123.238 41.1407 122.613 41.9141 122.613H79.9411V109.051H25.6791C21.9291 109.051 18.89 112.09 18.89 115.836C18.89 119.586 21.9291 122.622 25.6791 122.622H29.4838H29.4798C30.2533 122.622 30.8782 123.25 30.8782 124.02C30.8782 124.793 30.2532 125.418 29.4798 125.418H25.679C20.386 125.418 16.097 121.129 16.097 115.836C16.097 110.547 20.3861 106.254 25.679 106.254H82.738L82.7381 125.41Z" fill="#5FCFDD"/>
<path d="M28.3521 135V117.02H43.0241V135.008L35.6882 130.348L28.3521 135ZM35.6685 127.031L40.2076 129.91V119.816H31.149V129.918L35.6685 127.031Z" fill="#5FCFDD"/>
<path d="M65.9609 111.645H81.3399V114.442H65.9609V111.645Z" fill="#5FCFDD"/>
<path d="M44.5229 68.77H59.902V71.5669H44.5229V68.77Z" fill="#5FCFDD"/>
<path d="M38.9139 74.359H65.5229V77.1559H38.9139V74.359Z" fill="#5FCFDD"/>
<path d="M25.0699 116.77H81.3469V119.567H25.0699V116.77Z" fill="#5FCFDD"/>
<path d="M23.676 45.121H26.4729V107.141H23.676V45.121Z" fill="#5FCFDD"/>
<path d="M80.406 82.039L59.39 60.977C56.5736 58.145 54.9916 54.3129 54.9916 50.317C54.9916 46.3248 56.5736 42.4928 59.39 39.661L59.5931 39.4579C62.429 36.6259 66.2689 35.036 70.2731 35.036C74.277 35.036 78.1169 36.6258 80.9491 39.4579L81.4335 39.9423L81.9179 39.4579C84.7538 36.6259 88.5937 35.036 92.5979 35.036C96.6057 35.036 100.446 36.6258 103.282 39.4579L103.485 39.661C106.317 42.493 107.907 46.3329 107.907 50.337C107.907 54.3409 106.317 58.1847 103.485 61.013L82.423 82.04L80.406 82.039ZM70.265 37.797C67.0033 37.7931 63.8744 39.0861 61.5697 41.3947L61.3666 41.5978C56.5658 46.4064 56.5658 54.1918 61.3666 58.9998L81.4326 79.0778L101.499 58.9998C103.811 56.6951 105.108 53.5623 105.108 50.3006C105.108 47.035 103.811 43.9061 101.499 41.5975L101.295 41.3944C96.4868 36.5936 88.6974 36.5936 83.8934 41.3944L82.4207 42.8671H80.4051L78.9715 41.3944C76.6629 39.0858 73.5306 37.7931 70.265 37.797Z" fill="#69FEC3"/>
<path d="M64.312 57.062C63.9409 57.062 63.5854 56.9136 63.3237 56.6518C59.6128 52.933 59.6128 46.9096 63.3237 43.1908L63.5112 43.0033V43.0072C65.2924 41.2103 67.7182 40.2025 70.2495 40.2103C71.019 40.2103 71.6479 40.8353 71.6479 41.6087C71.6479 42.3783 71.019 43.0071 70.2495 43.0071C68.4643 43.0071 66.7534 43.7181 65.4956 44.9798L65.3081 45.1752V45.1791C62.687 47.8002 62.687 52.0502 65.3081 54.6752C65.7065 55.0736 65.8276 55.6752 65.6089 56.1986C65.394 56.7181 64.8862 57.0618 64.3198 57.0618L64.312 57.062Z" fill="#69FEC3"/>
<path d="M7.94922 16C8.00847 16 8.06272 16.041 8.0791 16.0996L8.08008 16.1006L8.43848 17.3877V17.3887C9.37001 20.7485 11.6964 23.5584 14.8262 25.1025V25.1035C14.8727 25.1266 14.9023 25.174 14.9023 25.2266C14.9023 25.266 14.8855 25.3025 14.8574 25.3281L14.8262 25.3496C11.7008 26.8933 9.37019 29.7038 8.43848 33.0645V33.0664L8.08398 34.3535C8.06706 34.4143 8.01418 34.4531 7.95312 34.4531C7.89391 34.4531 7.83962 34.4121 7.82324 34.3535L7.82227 34.3525L7.46289 33.0645H7.46387C6.53222 29.7042 4.20556 26.8936 1.0752 25.3496H1.07617C1.02969 25.3265 1.00001 25.279 1 25.2266C1 25.1742 1.02965 25.1267 1.07617 25.1035L1.0752 25.1025C4.20082 23.5589 6.53208 20.7495 7.46387 17.3887V17.3867L7.81836 16.0986L7.81934 16.0996C7.8363 16.0389 7.88824 16 7.94922 16Z" stroke="#69FEC3" stroke-width="2"/>
<path d="M99.9492 86C100.008 86 100.063 86.041 100.079 86.0996L100.08 86.1006L100.438 87.3877V87.3887C101.37 90.7485 103.696 93.5584 106.826 95.1025V95.1035C106.873 95.1266 106.902 95.174 106.902 95.2266C106.902 95.266 106.886 95.3025 106.857 95.3281L106.826 95.3496C103.701 96.8933 101.37 99.7038 100.438 103.064V103.066L100.084 104.354C100.067 104.414 100.014 104.453 99.9531 104.453C99.8939 104.453 99.8396 104.412 99.8232 104.354L99.8223 104.353L99.4629 103.064H99.4639C98.5322 99.7042 96.2056 96.8936 93.0752 95.3496H93.0762C93.0297 95.3265 93 95.279 93 95.2266C93 95.1742 93.0297 95.1267 93.0762 95.1035L93.0752 95.1025C96.2008 93.5589 98.5321 90.7495 99.4639 87.3887V87.3867L99.8184 86.0986L99.8193 86.0996C99.8363 86.0389 99.8882 86 99.9492 86Z" stroke="#69FEC3" stroke-width="2"/>
<path d="M51.4971 1C52.0112 1.00005 52.2432 1.26617 52.2744 1.35352L52.2754 1.35449L52.8398 2.92969C54.3033 7.03269 57.917 10.3726 62.6465 12.1865V12.1875C62.9832 12.3172 63 12.4949 63 12.5C63 12.5044 62.9873 12.6416 62.7578 12.7627L62.6465 12.8125C57.9233 14.6261 54.3032 17.9672 52.8398 22.0713L52.8389 22.0732L52.2812 23.6465C52.2495 23.7354 52.0213 24 51.5029 24C50.9888 24 50.7568 23.7338 50.7256 23.6465L50.7246 23.6455L50.1602 22.0693H50.1592C48.6954 17.9666 45.082 14.6262 40.3525 12.8125H40.3535C40.0168 12.6828 40 12.5051 40 12.5C40 12.4956 40.0127 12.3584 40.2422 12.2373L40.3535 12.1875C45.0767 10.3739 48.6968 7.03275 50.1602 2.92871L50.1611 2.92676L50.7188 1.35352C50.7505 1.26456 50.9787 1 51.4971 1Z" stroke="#69FEC3" stroke-width="2"/>
</svg>
