<svg width="599" height="719" viewBox="0 0 599 719" fill="none" xmlns="http://www.w3.org/2000/svg">
<path fill-rule="evenodd" clip-rule="evenodd" d="M371.182 499.362C379.667 500.574 387.545 501.786 396.03 503.605V512.695C401.485 513.908 406.939 515.12 411.788 516.938V521.18C419.061 522.998 425.727 524.817 433 526.635C433 556.938 433 587.241 433 617.544C433 649.059 433 680.574 433 711.483C399.667 701.786 366.333 693.908 331.182 694.514C302.091 695.12 273 700.574 245.121 707.847C244.515 713.908 239.061 718.15 233 718.15C226.939 718.15 221.485 713.301 220.879 707.847C192.394 701.18 163.909 695.12 134.818 694.514C99.6667 693.908 66.3333 702.392 33 711.483C33 679.968 33 648.453 33 617.544C33 587.241 33 556.938 33 526.635C40.2727 524.817 46.9394 522.998 54.2121 521.18V516.938C59.6667 515.726 65.1212 513.908 69.9697 512.695V503.605C97.2424 498.15 124.515 494.514 151.788 498.15C174.212 501.18 214.212 515.726 232.394 529.665C251.788 510.271 274.818 489.059 300.273 478.15C323.303 469.059 346.333 467.241 370.576 466.635V499.362H371.182ZM368.758 469.059C346.333 469.059 323.909 471.483 302.091 480.574C279.667 489.665 257.848 507.241 235.424 530.877C235.424 559.968 235.424 588.453 235.424 617.544C235.424 646.635 235.424 675.12 235.424 704.211C257.848 679.968 279.667 662.998 302.091 654.514C323.909 646.635 346.333 644.211 368.758 642.392C368.758 613.301 368.758 584.817 368.758 555.726C368.758 526.635 368.758 498.15 368.758 469.059ZM371.182 501.786V555.726C371.182 585.423 371.182 615.12 371.182 644.817C348.152 647.241 325.121 649.059 302.697 656.938C279.667 665.423 259.667 681.786 242.697 699.362C266.333 686.029 289.97 676.938 314.212 673.908C340.273 670.877 366.939 673.908 393.606 678.756C393.606 649.665 393.606 621.18 393.606 592.089C393.606 562.998 393.606 534.514 393.606 505.423C386.333 504.211 378.455 502.392 371.182 501.786ZM396.03 515.12V592.089C396.03 621.786 396.03 652.089 396.03 681.786C368.758 676.938 342.091 673.301 314.818 676.332C291.788 679.362 269.97 687.241 249.364 698.756C273.606 690.271 297.848 682.998 322.091 680.574C351.182 678.15 380.273 683.605 409.364 691.483C409.364 662.392 409.364 633.908 409.364 604.817C409.364 575.726 409.364 547.241 409.364 518.15C405.121 516.938 400.273 515.726 396.03 514.514V515.12ZM73 505.423C99.6667 500.574 125.727 496.938 152.394 500.574C179.061 504.211 205.121 515.12 231.788 530.877C231.788 559.968 231.788 588.453 231.788 617.544C231.788 646.635 231.788 675.12 231.788 704.211C205.121 687.847 179.061 677.544 152.394 674.514C126.333 671.483 99.6667 674.514 73 679.362C73 650.271 73 621.786 73 592.695C73 563.605 73 535.12 73 506.029V505.423ZM217.242 698.756C196.636 687.847 174.818 679.362 151.788 676.332C124.515 672.695 97.2424 676.332 70.5758 681.786C70.5758 652.089 70.5758 621.786 70.5758 592.089V515.12C66.3333 516.332 61.4848 517.544 57.2424 518.756C57.2424 547.847 57.2424 576.332 57.2424 605.423C57.2424 634.514 57.2424 662.998 57.2424 692.089C86.3333 683.605 115.424 678.756 144.515 681.18C168.758 683.605 193 690.271 217.242 699.362V698.756Z" fill="#EA5944"/>
<path fill-rule="evenodd" clip-rule="evenodd" d="M180.396 222.998C185.006 221.625 189.307 220.392 194.048 219.31L196.016 223.684C199.074 223.009 202.132 222.335 205.01 222.092L205.928 224.133C210.049 223.331 213.859 222.668 217.98 221.866C224.539 236.445 231.098 251.024 237.657 265.603C244.478 280.765 251.3 295.927 257.99 310.798C238.808 313.818 220.02 317.713 202.137 326.109C187.359 333.108 173.632 342.44 160.918 352.367C161.92 355.422 160.042 358.721 156.936 360.118C153.831 361.516 149.986 360.441 148.495 357.956C132.454 361.316 116.544 364.968 101.504 371.384C83.3584 379.197 68.1122 390.965 52.9972 403.024C46.1758 387.862 39.3543 372.7 32.6641 357.829C26.105 343.25 19.546 328.671 12.9869 314.092C16.3205 311.541 19.3435 309.129 22.6771 306.577L21.7589 304.536C24.2918 302.696 26.6937 300.563 28.9161 298.862L26.9483 294.488C39.7445 285.576 52.9342 277.539 67.698 273C79.8459 269.287 103.494 267.063 115.829 269.577C121.57 255.775 128.781 240.26 139.465 229.142C149.3 219.459 160.709 213.274 173.001 207.393L180.085 223.138L180.396 222.998ZM172.594 208.978C161.102 214.149 150.135 220.485 140.921 229.889C131.397 239.433 124.02 252.92 117.644 269.461C123.941 283.457 130.106 297.161 136.403 311.157C142.699 325.153 148.865 338.857 155.162 352.853C161.406 336.02 168.915 322.825 178.57 313.572C188.046 304.751 199.014 298.415 210.112 292.37C203.815 278.374 197.65 264.67 191.353 250.674C185.057 236.678 178.891 222.974 172.594 208.978ZM180.92 224.165L192.596 250.115C199.023 264.403 205.451 278.69 211.879 292.977C200.601 299.454 189.192 305.638 179.406 314.599C169.44 323.991 162.732 336.475 157.839 348.843C167.067 336.979 177.212 327.156 188.98 320.108C201.68 312.642 216.002 307.951 230.717 304.135C224.421 290.14 218.255 276.435 211.958 262.44C205.662 248.444 199.496 234.74 193.2 220.744C189.21 221.838 184.779 222.779 180.92 224.165ZM196.541 224.85L213.201 261.881C219.629 276.168 226.188 290.747 232.616 305.034C217.589 308.99 203.136 313.389 189.815 321.135C178.669 327.903 169.193 336.724 161.125 347.015C171.712 337.343 182.562 328.255 194.461 321.499C208.845 313.625 224.934 309.542 241.548 306.625C235.251 292.63 229.085 278.925 222.789 264.93C216.492 250.934 210.327 237.23 204.03 223.234C201.593 223.629 198.846 224.164 196.41 224.559L196.541 224.85ZM28.8949 294.665C41.5116 286.184 54.0801 278.425 68.5333 274.026C82.9866 269.627 98.7034 268.867 115.78 270.3C122.077 284.296 128.243 298 134.539 311.996C140.836 325.991 147.001 339.696 153.298 353.691C136.09 351.967 120.504 353.019 106.182 357.709C92.1708 362.26 79.1606 369.867 66.5438 378.348C60.2471 364.352 54.0816 350.648 47.7849 336.652C41.4882 322.656 35.3227 308.952 29.026 294.956L28.8949 294.665ZM144.663 354.421C131.742 353.923 118.724 354.872 106.265 358.724C91.5014 363.263 78.3117 371.3 65.8262 380.073C59.3983 365.786 52.8393 351.207 46.4114 336.919L29.7514 299.889C27.8396 301.45 25.6172 303.151 23.7054 304.712C30.0021 318.708 36.1676 332.412 42.4643 346.408C48.761 360.404 54.9265 374.108 61.2232 388.104C74.2952 377.314 88.1543 368.274 103.588 362.733C116.536 358.31 130.403 355.928 144.794 354.712L144.663 354.421Z" fill="#20C58D"/>
<path fill-rule="evenodd" clip-rule="evenodd" d="M490.552 148.467C493.164 150.105 495.576 151.653 498.102 153.478L496.827 156.286C498.445 157.472 500.062 158.659 501.397 159.943L500.801 161.253C502.93 162.897 504.86 164.452 506.989 166.096C502.737 175.456 498.485 184.815 494.234 194.175C489.812 203.909 485.39 213.643 481.053 223.19C471.487 215.231 461.666 207.834 450.058 202.786C440.438 198.642 430.136 195.994 419.978 194.089C418.929 195.871 416.545 196.369 414.559 195.467C412.572 194.564 411.464 192.254 412.031 190.479C403.629 184.179 395.143 178.065 385.692 173.546C374.254 168.124 362.137 165.781 349.935 163.625C354.357 153.891 358.779 144.157 363.116 134.611C367.368 125.251 371.62 115.892 375.872 106.532C378.511 107.053 380.951 107.485 383.591 108.006L384.186 106.696C386.144 107.133 388.187 107.384 389.946 107.732L391.222 104.924C400.927 107.3 410.377 110.238 418.807 115.423C425.732 119.698 436.803 130.147 440.807 137.16C449.885 134.058 460.411 130.935 470.285 131.356C479.11 131.978 486.914 134.846 494.946 138.269L490.354 148.377L490.552 148.467ZM494.01 138.747C486.659 135.408 478.968 132.817 470.541 132.376C461.915 131.845 452.297 134.024 441.63 137.985C437.548 146.971 433.551 155.769 429.47 164.754C425.388 173.739 421.391 182.537 417.309 191.522C428.061 187.374 437.594 185.381 446.135 186.1C454.392 186.915 462.083 189.506 469.689 192.283C473.771 183.298 477.767 174.5 481.849 165.515C485.931 156.53 489.928 147.732 494.01 138.747ZM490.212 149.216L482.644 165.876C478.477 175.048 474.31 184.221 470.143 193.393C462.254 190.713 454.45 187.845 445.994 186.939C437.254 186.13 428.402 188.206 420.373 191.108C429.992 190.509 439.015 191.221 447.387 193.895C456.355 196.84 464.671 201.747 472.732 207.215C476.813 198.23 480.81 189.432 484.892 180.447C488.974 171.462 492.971 162.664 497.053 153.678C494.839 152.221 492.511 150.486 490.212 149.216ZM496.487 157.035L485.687 180.808C481.52 189.98 477.268 199.34 473.101 208.512C464.842 202.953 456.611 197.859 447.246 194.734C439.271 192.241 431.014 191.425 422.644 191.913C431.781 192.902 440.748 194.266 449.034 197.127C458.91 200.711 467.681 206.727 476.111 213.493C480.193 204.507 484.19 195.709 488.272 186.724C492.353 177.739 496.35 168.941 500.432 159.956C499.211 158.95 497.792 157.853 496.572 156.847L496.487 157.035ZM391.96 105.937C401.382 108.41 410.434 111.168 418.665 116.262C426.896 121.356 433.908 128.606 440.438 137.444C436.356 146.429 432.359 155.227 428.278 164.212C424.196 173.198 420.199 181.996 416.117 190.981C409.672 181.956 402.575 174.893 394.259 169.986C386.142 165.169 376.976 162.134 367.554 159.661C371.636 150.675 375.633 141.877 379.715 132.892C383.796 123.907 387.793 115.109 391.875 106.124L391.96 105.937ZM412.115 187.13C406.891 180.692 400.929 174.822 393.805 170.457C385.376 165.273 375.926 162.335 366.419 160.048C370.586 150.876 374.838 141.516 379.005 132.344L389.805 108.571C388.244 108.313 386.485 107.966 384.924 107.708C380.842 116.694 376.845 125.492 372.764 134.477C368.682 143.462 364.685 152.26 360.603 161.245C371.329 162.956 381.546 165.791 390.741 170.872C398.348 175.23 405.359 180.899 412.03 187.317L412.115 187.13Z" fill="#FFCE69"/>
<path d="M270.441 614.074C279.974 608.641 291.242 601.246 300.067 594.932C300.19 594.844 300.313 594.756 300.436 594.669C304.033 592.099 307.677 589.418 311.97 586.013C312.516 585.58 313.075 585.133 313.643 584.673C318.677 580.562 324.812 575.42 332.359 567.421C348.332 550.787 357.456 531.142 358.355 516.393C359.15 507.422 357.884 501.044 356.75 497.368C351.022 476.337 326.231 469.193 301.15 468.272C298.796 468.151 296.202 468.063 293.787 468.014C291.782 467.972 290.095 467.829 290.05 467.665C290.005 467.502 291.624 467.38 293.636 467.42C296.012 467.467 298.54 467.55 300.856 467.665C300.867 467.665 300.877 467.666 300.888 467.666C326.245 468.624 350.585 475.515 356.986 496.151C358.343 500.141 359.793 506.885 358.945 516.447C358.005 531.688 348.511 551.647 332.214 568.443C324.521 576.509 318.276 581.691 313.182 585.812C312.622 586.26 312.075 586.694 311.542 587.114C311.529 587.124 311.517 587.134 311.504 587.143C307.157 590.558 303.643 593.117 300.196 595.568C300.122 595.621 300.049 595.673 299.976 595.725C291.004 602.114 279.948 609.335 270.671 614.623C268.904 615.635 267.464 616.288 267.399 616.138C267.34 615.984 268.677 615.086 270.441 614.074ZM320.768 353.997C330.834 357.084 344.353 361.49 357.435 359.513C371.283 357.832 377.346 344.675 378.515 339.558C379.213 337.191 379.778 334.475 380.159 331.237C380.524 328.119 380.619 324.838 380.276 321.26C380.119 319.629 379.863 317.923 379.504 316.219C378.322 310.519 375.848 304.46 372.116 298.54C357.489 277.359 343.234 268.593 335.115 260.53C333.374 258.953 331.749 257.45 330.28 256.047C330.278 256.045 330.275 256.043 330.273 256.04C324.702 250.719 320.901 246.451 317.931 242.218C312.725 234.685 309.895 227.573 310.29 218.947C310.484 215.258 311.318 211.275 312.917 207.088C316.353 197.491 323.201 189.124 329.861 185.009C330.375 184.671 330.909 184.335 331.458 184.008C338.452 179.803 348.529 176.623 364.37 175.212C377.553 174.044 389.271 173.912 399.64 173.093C402.616 172.87 405.454 172.612 408.183 172.308C415.064 171.541 421.222 170.48 426.933 169.025C435.234 166.919 442.512 164.032 448.68 160.673C468.253 150.089 480.958 143.172 489.583 138.161C498.253 133.146 503.029 130.171 506.47 128.009C507.503 127.358 508.422 126.768 509.276 126.21C516.882 121.213 523.648 116.209 531.313 109.615C533.009 108.151 534.762 106.589 536.547 104.942C542.539 99.3975 546.645 94.8949 549.774 91.3074C551.143 89.7314 552.319 88.3275 553.413 86.9945C553.433 86.9697 553.453 86.945 553.473 86.9203C553.626 86.7337 553.778 86.5482 553.929 86.3634C554.042 86.2241 554.155 86.0842 554.269 85.9443C554.312 85.888 554.351 85.8378 554.38 85.8002C554.403 85.7705 554.421 85.7474 554.432 85.7325C554.434 85.7296 554.437 85.7267 554.439 85.7238C554.648 85.4536 554.833 85.2232 554.868 85.1784C554.933 85.0977 554.99 85.0266 555.02 84.9901C555.175 84.7973 555.376 84.5495 555.51 84.3843C555.855 83.9595 556.454 83.2226 557.38 82.0584C558.19 81.0281 558.916 80.0831 559.852 78.8419C559.91 78.764 559.969 78.6861 560.027 78.608C560.946 77.3856 561.972 76.0009 563.275 74.2021C564.476 72.5466 565.614 71.1548 565.91 71.0208C566.195 70.8994 565.505 72.1233 564.331 73.758C563.099 75.4702 562.139 76.7775 561.236 77.9925C561.178 78.07 561.121 78.1475 561.063 78.2248C560.113 79.4983 559.219 80.6749 558.232 81.935C557.896 82.363 557.55 82.801 557.225 83.2073C556.644 83.9416 555.988 84.7698 555.196 85.752C555.034 85.9528 554.867 86.1592 554.696 86.3697C553.594 87.7274 552.339 89.2469 550.838 90.9887C547.365 95.0048 542.804 100.015 536.243 106.03C534.514 107.611 532.83 109.1 531.144 110.546C523.413 117.159 516.11 122.531 507.977 127.785C506.86 128.504 505.785 129.179 504.626 129.897C501.195 132.009 497.091 134.522 489.05 139.156C480.8 143.926 468.395 150.683 448.962 161.192C442.856 164.517 435.653 167.394 427.427 169.509C421.404 171.067 414.805 172.183 407.786 172.946C405.104 173.239 402.36 173.483 399.56 173.692C389.332 174.489 377.975 174.643 365.266 175.728C349.807 177.058 340.029 179.918 333.003 183.818C332.76 183.953 332.518 184.089 332.279 184.228C331.981 184.4 331.688 184.574 331.4 184.75C324.372 188.757 317.084 197.174 313.472 207.295C311.706 211.897 310.853 216.458 310.854 220.547C310.907 228.635 313.715 235.26 318.945 242.617C321.576 246.24 324.745 249.89 330.17 255.122C331.676 256.571 333.409 258.185 335.32 259.918C343.556 268.134 358.076 276.946 372.877 298.641C376.475 304.454 378.868 310.315 380.073 316.053C380.445 317.811 380.716 319.605 380.877 321.339C381.196 324.758 381.128 328.054 380.749 331.302C380.279 335.19 379.66 338.129 378.556 341.448C377.429 345.979 370.608 358.884 356.943 360.191C343.882 361.896 331.349 357.77 322.389 355.148C321.489 354.871 320.575 354.581 319.656 354.282C311.559 351.644 303.775 348.579 297.37 346.111C268.398 335.916 219.922 308.285 185.049 301.253C184.605 301.163 184.163 301.075 183.722 300.99C157.509 294.653 138.056 306.394 133.059 320.189C129.469 327.744 127.387 333.521 126.225 336.965C126.075 337.411 125.941 337.815 125.823 338.178C125.717 338.504 125.62 338.805 125.537 339.067C124.296 342.974 123.377 346.507 122.59 350.216C122.547 350.419 122.505 350.621 122.463 350.824C121.66 354.752 120.996 358.905 120.548 363.846C118.954 382.269 122.147 397.382 125.682 410.069C126.347 412.41 127.043 414.694 127.758 416.914C127.761 416.921 127.763 416.927 127.765 416.934C129.557 422.488 131.443 427.619 133.351 432.501C134.771 436.104 136.309 439.056 138.272 442.032C146.581 454.19 156.552 458.522 163.733 461.465C166.095 462.377 168.214 463.072 170.343 463.698C174.905 465.03 179.003 465.895 183.224 466.629C191.293 468.007 198.771 468.596 206.253 468.923C206.922 468.952 207.601 468.978 208.262 469.001C216.32 469.282 224.45 469.23 232.992 469.052C234.98 469.01 236.637 469.098 236.683 469.26C236.727 469.422 235.145 469.597 233.156 469.639C224.851 469.814 216.916 469.877 208.827 469.614C208.166 469.592 207.486 469.568 206.807 469.54C199.3 469.227 191.696 468.657 183.416 467.262C179.359 466.565 175.398 465.748 170.924 464.483C168.75 463.863 166.511 463.151 164.031 462.214C156.638 459.242 146.398 454.886 137.855 442.473C135.839 439.436 134.255 436.409 132.8 432.715C130.938 427.951 129.087 422.926 127.316 417.469C126.588 415.223 125.881 412.92 125.201 410.539C121.625 397.787 118.357 382.531 119.95 363.9C120.371 359.205 120.978 355.244 121.76 351.307C121.804 351.087 121.849 350.867 121.894 350.647C122.66 346.943 123.608 343.202 124.922 339.048C125.1 338.488 125.328 337.78 125.612 336.935C126.782 333.453 128.886 327.596 132.525 319.936C137.548 305.901 157.636 293.978 183.944 300.431C184.065 300.455 184.186 300.479 184.308 300.503C211.242 306.558 225.475 314.185 236.537 318.559C245.226 322.277 251.605 325.234 256.877 327.68C257.88 328.146 258.829 328.588 259.733 329.01C263.629 330.83 266.738 332.29 269.839 333.703C279.208 337.973 286.09 340.964 294.389 344.229C301.577 347.061 310.165 350.471 318.012 353.094C318.023 353.098 318.035 353.102 318.047 353.106C318.977 353.418 319.886 353.716 320.768 353.997ZM578.543 49.3524C579.511 47.5781 580.384 46.2062 580.521 46.2985C580.655 46.3923 579.998 47.9203 579.027 49.699C576.713 53.9358 574.298 58.1289 571.701 62.2539C570.619 63.9726 569.586 65.2859 569.464 65.1758C569.337 65.0721 570.162 63.592 571.24 61.8769C573.827 57.764 576.234 53.5819 578.543 49.3524ZM313.891 348.368C315.639 349.005 317.529 349.808 317.879 350.104C318.245 350.405 317.023 350.135 315.149 349.465C314.205 349.128 312.646 348.57 310.511 347.769C294.738 342.851 253.064 320.573 206.291 303.887C202.445 302.614 198.668 301.482 195.321 300.589C187.928 298.648 181.19 297.278 172.705 296.782C164.501 296.557 153.2 296.253 141.905 304.775C137.148 308.536 133.599 313.368 130.845 319.138C112.116 354.646 115.261 397.142 130.656 433.55C174.798 507.714 274.618 448.225 343.551 482.885C353.683 490.48 356.578 504.237 355.302 516.118C352.933 540.588 336.622 560.44 319.359 576.34C297.836 597.41 249.625 623.23 237.653 627.989C235.782 628.837 234.218 629.359 234.278 629.155C234.172 629.025 235.599 628.272 237.471 627.423C249.342 622.704 297.328 597.001 318.732 576.112C336.047 560.218 352.364 540.386 354.713 516.064C355.937 504.449 353.236 491.179 343.588 483.676C275.447 448.36 175.305 509.433 129.649 433.942C114.084 397.517 110.795 354.331 129.669 318.58C132.511 312.617 136.213 307.572 141.223 303.649C152.931 294.931 164.306 295.465 172.428 295.814C180.864 296.454 187.412 297.931 194.848 299.85C198.205 300.732 202.01 301.857 205.919 303.141C252.163 319.487 293.212 341.475 309.04 346.56C311.255 347.406 312.888 348.003 313.891 348.368ZM376.956 319.888C374.733 296.728 347.142 276.502 327.283 257.701C317.514 248.343 309.537 237.723 307.456 227.516C305.546 218.772 307.261 211.516 309.436 205.79C311.232 201.154 313.244 197.398 315.809 193.817C315.87 193.732 315.931 193.648 315.993 193.564C321.805 185.734 330.074 179.08 345.556 175.371C361.18 171.427 383.498 172.111 405.65 169.81C405.667 169.808 405.684 169.806 405.702 169.805C420.669 168.268 435.647 164.429 447.176 157.903C452.67 154.856 457.8 152.04 462.365 149.556C512.882 123.621 538.541 98.9578 549.903 85.5283C555.041 79.7036 559.998 73.3509 564.727 66.659C578.526 46.5008 588.737 22.848 598.251 1.19996C599.694 -2.01537 597.96 3.66115 595.31 9.54391C595.219 9.75101 595.125 9.96097 595.031 10.1737C594.129 12.2004 593.334 13.9735 592.219 16.4515C590.606 20.0644 589.391 22.7308 588.261 25.1772C586.252 29.3541 576.805 50.4953 565.21 66.9981C559.287 75.3689 553.32 82.6351 549.415 86.9864C538.544 99.6443 513.756 124.617 462.848 150.781C458.329 153.239 453.217 155.963 447.716 158.898C436.127 165.205 421.254 168.762 406.232 170.342C406.171 170.349 406.11 170.356 406.05 170.363C384.003 172.705 361.482 171.975 345.714 175.941C329.769 179.727 321.421 186.866 315.836 194.813C315.782 194.891 315.728 194.969 315.674 195.048C313.386 198.405 311.605 201.842 309.993 205.997C307.849 211.655 306.154 218.715 308.028 227.367C310.116 237.622 318.194 248.218 328.006 257.579C347.749 276.208 375.023 296.257 377.496 319.492C377.796 321.487 377.748 323.13 377.593 323.234C377.43 323.316 377.235 321.854 376.956 319.888ZM373.251 319.987C369.747 298.96 350.216 284.081 333.076 268.737C324.372 260.911 315.333 252.805 308.779 241.867C301.948 231.112 300.568 216.107 305.499 204.321C311.035 187.506 327.296 174.529 343.947 171.387C360.59 167.088 383.502 168.031 405.443 165.843C405.691 165.818 405.939 165.792 406.187 165.766C420.688 164.301 434.721 160.78 445.509 154.833C451.169 151.773 456.417 148.944 461.035 146.431C511.481 120.494 536.178 96.0489 547.391 82.8003C555.698 73.2305 558.823 68.6657 561.763 64.5804C562.549 63.465 563.324 62.3188 564.116 61.1097C564.215 60.9585 564.314 60.8066 564.413 60.6542C564.42 60.6438 564.426 60.6335 564.432 60.6231C564.55 60.4269 564.651 60.2623 564.703 60.1776C564.811 60.0035 564.895 59.8689 564.928 59.8171C565.002 59.6984 565.065 59.5992 565.088 59.5638C565.179 59.4191 565.285 59.2534 565.353 59.1464C565.997 58.1471 567.954 55.0013 569.451 52.443C570.982 49.8396 572.058 47.9507 573.174 45.964C573.287 45.7625 573.4 45.5607 573.513 45.3586C574.515 43.5592 575.595 41.5928 577.096 38.7301C578.012 36.9823 578.766 35.7978 578.803 36.0853C578.837 36.3805 578.14 38.0289 577.218 39.7775C575.629 42.7905 574.47 44.881 573.455 46.6871C573.342 46.8871 573.229 47.087 573.116 47.2865C572.035 49.1929 571.078 50.856 569.711 53.1686C567.741 56.5208 566.207 58.9819 564.774 61.1837C563.935 62.4708 563.108 63.6992 562.247 64.9199C559.123 69.2607 555.653 74.3072 546.922 84.2397C536.147 96.7476 512.101 120.792 461.336 146.939C456.71 149.457 451.455 152.289 445.791 155.352C434.902 161.354 420.768 164.888 406.236 166.355C405.98 166.382 405.725 166.409 405.469 166.435C383.451 168.62 360.596 167.694 344.11 171.955C327.42 175.296 311.768 188.214 306.447 204.675C295.399 230.335 317.17 253.573 333.677 267.631C350.601 282.899 370.379 297.999 373.79 319.608C374.385 323.338 374.43 326.945 374.04 330.565C373.25 337.533 371.621 342.965 368.28 347.283C360.766 356.809 346.719 354.919 335.991 352.558C324.861 349.952 314.836 346.1 305.039 342.213C300.787 340.535 289.641 335.725 273.715 328.286C269.044 326.117 263.907 323.716 258.347 321.149C244.688 314.903 228.535 307.354 209.339 300.751C205.37 299.404 201.667 298.258 198.179 297.284C190.748 295.244 183.766 293.63 175.051 292.825C166.413 292.348 154.501 291.247 141.041 300.061C135.291 304.051 130.494 309.833 126.953 317.291C108.544 349.333 112.061 399.269 122.504 423.87C123.956 428.149 125.323 431.837 126.589 435.133C130.161 444.251 134.23 449.301 137.577 453.016C138.874 454.424 140.076 455.588 141.217 456.617C144.207 459.284 146.771 461.159 150.209 463.251C176.096 477.168 197.169 476.847 228.947 476.843C230.949 476.806 232.7 476.894 232.855 477.054C233.009 477.213 231.507 477.386 229.502 477.425C197.664 477.438 176.195 477.946 149.745 463.66C146.131 461.451 143.37 459.389 140.331 456.61C139.208 455.573 138.046 454.42 136.814 453.058C133.555 449.377 129.565 444.355 126.038 435.348C124.758 432.014 123.368 428.264 121.891 423.903C111.443 399.3 107.984 349.096 126.419 317.037C129.981 309.532 134.822 303.679 140.624 299.632C154.124 290.73 166.065 291.77 174.611 292.194C183.318 292.952 190.217 294.513 197.694 296.535C201.179 297.493 204.962 298.65 208.955 299.995C228.225 306.573 244.46 314.151 258.127 320.395C263.685 322.959 268.803 325.35 273.461 327.514C289.724 335.109 300.128 339.591 303.812 341.065C313.906 345.115 324.285 349.16 335.708 351.885C346.745 354.401 360.909 356.133 367.995 346.686C371.125 342.514 372.693 337.233 373.453 330.501C373.829 327.011 373.793 323.547 373.251 319.987ZM339.751 485.695C338.295 484.63 336.961 483.729 336.946 483.529C336.907 483.325 338.194 483.87 339.718 484.943C347.696 490.594 349.981 497.656 350.996 502.996C351.887 508.235 351.722 511.897 351.424 515.767C351.115 519.212 350.565 522.292 349.57 525.912C344.127 545.001 330.749 560.255 318.055 572.167C296.48 591.958 275.394 603.884 264.445 610.176C262.69 611.162 261.218 611.817 261.162 611.663C261.097 611.512 262.472 610.608 264.217 609.627C275.072 603.386 295.97 591.565 317.43 571.942C330.117 560.075 343.523 544.856 348.976 525.841C349.979 522.207 350.522 519.178 350.835 515.714C351.111 512.107 351.277 508.829 350.545 503.874C349.654 498.651 347.663 491.494 339.751 485.695Z" fill="#5FCFDD"/>
</svg>
