<svg width="364" height="364" viewBox="0 0 364 364" fill="none" xmlns="http://www.w3.org/2000/svg">
<circle cx="182" cy="182" r="182" fill="#FFCE69" fill-opacity="0.25"/>
<rect x="1.18728" y="192.997" width="85.026" height="30.1327" rx="4" transform="rotate(-12.0906 1.18728 192.997)" stroke="#FF9181" stroke-width="2"/>
<path d="M17.2526 210.588L14.8153 199.21L22.3489 197.596L22.7738 199.58L17.6458 200.678L18.2266 203.389L22.8546 202.398L23.2794 204.381L18.6515 205.373L19.6583 210.073L17.2526 210.588ZM28.7209 208.3C28.1765 208.417 27.671 208.426 27.2046 208.329C26.7374 208.227 26.3397 208.016 26.0114 207.695C25.686 207.37 25.463 206.926 25.3424 206.363C25.2409 205.888 25.2426 205.472 25.3477 205.112C25.4527 204.753 25.6342 204.443 25.8922 204.182C26.1502 203.921 26.4592 203.7 26.8193 203.519C27.183 203.336 27.5717 203.179 27.9852 203.048C28.4704 202.89 28.8601 202.756 29.1543 202.646C29.4477 202.533 29.653 202.416 29.7702 202.294C29.8874 202.172 29.9266 202.02 29.8877 201.839L29.8806 201.805C29.8052 201.453 29.6358 201.205 29.3723 201.06C29.1125 200.914 28.7807 200.884 28.377 200.971C27.9511 201.062 27.6324 201.229 27.421 201.472C27.2088 201.711 27.0921 201.98 27.0709 202.279L24.8439 202.57C24.8439 202.028 24.9664 201.533 25.2115 201.085C25.4557 200.634 25.8134 200.251 26.2846 199.937C26.7587 199.619 27.3365 199.387 28.018 199.241C28.4921 199.139 28.9577 199.098 29.4149 199.116C29.8757 199.133 30.2997 199.223 30.6867 199.384C31.0775 199.544 31.4103 199.787 31.6851 200.111C31.9592 200.432 32.1505 200.846 32.2592 201.354L33.4922 207.11L31.2476 207.59L30.9942 206.407L30.9275 206.421C30.8476 206.717 30.7146 206.992 30.5286 207.245C30.3418 207.494 30.0996 207.71 29.802 207.894C29.5035 208.074 29.1432 208.21 28.7209 208.3ZM29.0489 206.522C29.397 206.447 29.6898 206.313 29.9271 206.118C30.1636 205.921 30.3324 205.687 30.4335 205.417C30.5346 205.148 30.553 204.863 30.4887 204.563L30.2947 203.657C30.231 203.721 30.1386 203.788 30.0177 203.856C29.8997 203.92 29.7647 203.986 29.6125 204.053C29.4596 204.117 29.3063 204.179 29.1526 204.239C28.9981 204.295 28.858 204.347 28.7323 204.393C28.4633 204.493 28.2346 204.61 28.0462 204.743C27.8578 204.877 27.7225 205.031 27.6402 205.208C27.5571 205.381 27.5394 205.578 27.587 205.8C27.656 206.123 27.8254 206.344 28.0953 206.464C28.368 206.58 28.6859 206.599 29.0489 206.522ZM36.6383 201.276L37.6951 206.209L35.3284 206.716L33.5004 198.183L35.756 197.699L36.0785 199.205L36.1785 199.184C36.2611 198.647 36.4937 198.186 36.8763 197.802C37.2581 197.414 37.7656 197.153 38.399 197.017C38.9916 196.89 39.5361 196.909 40.0324 197.074C40.5287 197.239 40.9506 197.536 41.2982 197.965C41.645 198.39 41.8894 198.934 42.0314 199.597L43.1954 205.031L40.8286 205.538L39.7551 200.527C39.647 200.004 39.4263 199.625 39.0933 199.39C38.7594 199.152 38.3555 199.083 37.8814 199.185C37.5628 199.253 37.296 199.382 37.0809 199.571C36.8695 199.76 36.7235 200 36.6428 200.293C36.565 200.581 36.5635 200.908 36.6383 201.276ZM47.7718 195.125L48.1526 196.903L43.0135 198.004L42.6327 196.226L47.7718 195.125ZM43.3614 193.932L45.7282 193.425L47.4324 201.381C47.4792 201.599 47.5491 201.763 47.6419 201.87C47.734 201.975 47.8444 202.038 47.9733 202.061C48.1058 202.083 48.2517 202.077 48.411 202.043C48.5221 202.019 48.6312 201.986 48.7384 201.944C48.8447 201.898 48.9263 201.863 48.9832 201.839L49.7327 203.52C49.6221 203.583 49.4646 203.661 49.2601 203.755C49.0564 203.853 48.802 203.94 48.497 204.017C47.9313 204.162 47.415 204.193 46.9481 204.111C46.4849 204.028 46.0954 203.829 45.7799 203.513C45.4643 203.197 45.2484 202.759 45.1323 202.199L43.3614 193.932ZM53.6095 202.969C53.065 203.085 52.5596 203.095 52.0931 202.997C51.6259 202.896 51.2282 202.685 50.8999 202.364C50.5745 202.038 50.3515 201.594 50.2309 201.031C50.1294 200.557 50.1311 200.14 50.2362 199.781C50.3412 199.421 50.5228 199.111 50.7807 198.851C51.0387 198.59 51.3477 198.369 51.7078 198.187C52.0715 198.005 52.4602 197.848 52.8737 197.717C53.3589 197.558 53.7486 197.425 54.0428 197.315C54.3362 197.202 54.5415 197.084 54.6587 196.962C54.7759 196.84 54.8151 196.689 54.7762 196.507L54.7691 196.474C54.6937 196.122 54.5243 195.874 54.2608 195.729C54.001 195.583 53.6693 195.553 53.2655 195.64C52.8396 195.731 52.5209 195.898 52.3095 196.141C52.0973 196.38 51.9806 196.649 51.9595 196.948L49.7324 197.239C49.7324 196.697 49.855 196.202 50.1 195.754C50.3442 195.303 50.7019 194.92 51.1731 194.606C51.6472 194.288 52.225 194.055 52.9065 193.909C53.3806 193.808 53.8462 193.766 54.3034 193.784C54.7642 193.802 55.1882 193.891 55.5752 194.052C55.966 194.213 56.2988 194.455 56.5736 194.78C56.8477 195.101 57.039 195.515 57.1477 196.022L58.3807 201.778L56.1362 202.259L55.8827 201.076L55.816 201.09C55.7361 201.386 55.6031 201.66 55.4171 201.913C55.2303 202.162 54.9881 202.379 54.6905 202.563C54.392 202.743 54.0317 202.878 53.6095 202.969ZM53.9374 201.19C54.2855 201.116 54.5783 200.981 54.8156 200.787C55.0521 200.589 55.2209 200.355 55.322 200.086C55.4231 199.816 55.4415 199.531 55.3772 199.231L55.1832 198.326C55.1195 198.39 55.0271 198.456 54.9062 198.525C54.7882 198.589 54.6532 198.654 54.5011 198.722C54.3481 198.786 54.1948 198.848 54.0411 198.908C53.8866 198.964 53.7465 199.015 53.6208 199.061C53.3518 199.162 53.1231 199.279 52.9347 199.412C52.7463 199.545 52.611 199.7 52.5287 199.877C52.4456 200.049 52.4279 200.247 52.4755 200.469C52.5445 200.791 52.7139 201.013 52.9838 201.133C53.2565 201.249 53.5744 201.268 53.9374 201.19ZM66.0104 193.764L63.8722 194.361C63.7955 194.184 63.6802 194.034 63.5262 193.912C63.3715 193.787 63.1846 193.701 62.9655 193.655C62.7494 193.604 62.5043 193.608 62.2302 193.667C61.8635 193.745 61.5709 193.89 61.3524 194.099C61.133 194.305 61.0507 194.536 61.1055 194.791C61.1491 194.995 61.2675 195.15 61.4606 195.255C61.6537 195.361 61.9576 195.414 62.3721 195.415L63.9833 195.395C64.8494 195.388 65.5267 195.529 66.015 195.82C66.5034 196.11 66.8134 196.563 66.9451 197.178C67.0649 197.737 67.0052 198.263 66.766 198.756C66.5306 199.248 66.153 199.674 65.6334 200.033C65.1167 200.388 64.4879 200.644 63.7472 200.803C62.6175 201.045 61.6671 201.003 60.8959 200.676C60.1277 200.344 59.5989 199.784 59.3095 198.993L61.6112 198.373C61.7553 198.702 61.982 198.928 62.2913 199.052C62.5998 199.172 62.9651 199.187 63.3874 199.096C63.8022 199.007 64.1185 198.856 64.3362 198.643C64.5569 198.425 64.6417 198.188 64.5907 197.932C64.5409 197.718 64.4125 197.561 64.2054 197.462C63.9974 197.36 63.7003 197.311 63.3141 197.316L61.7732 197.338C60.9041 197.35 60.2218 197.194 59.7263 196.87C59.2345 196.546 58.9204 196.065 58.7839 195.428C58.6665 194.88 58.7135 194.376 58.9249 193.916C59.14 193.455 59.495 193.06 59.9897 192.729C60.4882 192.398 61.1022 192.154 61.8319 191.997C62.9097 191.767 63.8067 191.813 64.5228 192.136C65.2426 192.458 65.7385 193.001 66.0104 193.764ZM71.1486 202.39C70.8486 202.454 70.562 202.491 70.2887 202.499C70.0199 202.51 69.7928 202.498 69.6073 202.465L69.7622 200.584C70.0583 200.609 70.3182 200.602 70.542 200.562C70.7695 200.521 70.9529 200.427 71.092 200.281C71.2349 200.135 71.3296 199.917 71.3762 199.628L71.4378 199.237L66.4962 191.115L68.9851 190.581L72.0943 196.47L72.1832 196.451L72.6242 189.802L75.1298 189.265L73.8386 199.432C73.7777 199.925 73.6467 200.371 73.4456 200.771C73.249 201.173 72.9632 201.511 72.588 201.785C72.2136 202.063 71.7338 202.265 71.1486 202.39Z" fill="#FF9181"/>
<rect x="116.298" y="57.2072" width="85.026" height="30.1327" rx="4" transform="rotate(13.6108 116.298 57.2072)" stroke="#20C58D" stroke-width="2"/>
<path d="M127.519 81.0846L130.257 69.775L134.719 70.8554C135.573 71.0622 136.265 71.3914 136.795 71.8432C137.329 72.2921 137.687 72.8329 137.869 73.4655C138.056 74.0952 138.059 74.7838 137.878 75.5312C137.696 76.2822 137.378 76.8891 136.923 77.3518C136.469 77.8109 135.899 78.1095 135.215 78.2478C134.534 78.387 133.76 78.3514 132.891 78.1411L129.903 77.4177L130.368 75.496L132.969 76.1257C133.426 76.2363 133.82 76.2655 134.152 76.2134C134.485 76.1613 134.755 76.0279 134.963 75.8133C135.174 75.5995 135.325 75.3066 135.415 74.9348C135.506 74.5593 135.507 74.2244 135.419 73.9302C135.334 73.6368 135.155 73.3869 134.881 73.1804C134.612 72.971 134.248 72.8107 133.787 72.6993L132.175 72.3088L129.91 81.6635L127.519 81.0846ZM134.873 77.4166L136.437 83.2439L133.798 82.6048L132.294 76.7922L134.873 77.4166ZM141.335 84.6053C140.478 84.3976 139.78 84.0358 139.242 83.5198C138.709 83.001 138.353 82.3729 138.173 81.6356C137.994 80.8946 138.009 80.0897 138.219 79.2208C138.432 78.3446 138.786 77.6199 139.284 77.0466C139.782 76.4696 140.386 76.0742 141.097 75.8604C141.812 75.6438 142.598 75.6393 143.456 75.847C144.314 76.0547 145.009 76.4179 145.542 76.9367C146.08 77.4527 146.438 78.0812 146.617 78.8222C146.797 79.5595 146.781 80.3663 146.569 81.2425C146.359 82.1113 146.004 82.8342 145.506 83.4112C145.009 83.9845 144.403 84.3795 143.688 84.5961C142.977 84.8099 142.193 84.813 141.335 84.6053ZM141.788 82.7856C142.178 82.8801 142.53 82.8486 142.845 82.691C143.161 82.5297 143.432 82.2718 143.658 81.9173C143.888 81.5637 144.063 81.1403 144.182 80.647C144.301 80.1537 144.34 79.6972 144.297 79.2777C144.258 78.859 144.135 78.5058 143.928 78.2179C143.721 77.9301 143.423 77.7389 143.032 77.6444C142.639 77.549 142.28 77.5811 141.957 77.7406C141.637 77.901 141.363 78.158 141.133 78.5115C140.907 78.866 140.734 79.2899 140.615 79.7832C140.495 80.2765 140.455 80.7325 140.494 81.1512C140.537 81.5707 140.663 81.9249 140.874 82.2136C141.089 82.4996 141.394 82.6902 141.788 82.7856ZM147.08 85.8208L149.134 77.3386L151.376 77.8815L151.013 79.378L151.113 79.4021C151.41 78.9479 151.799 78.6271 152.281 78.4398C152.763 78.2525 153.291 78.2283 153.865 78.3674C154.447 78.5082 154.907 78.7735 155.245 79.1633C155.584 79.5494 155.762 80.0056 155.779 80.5319L155.867 80.5533C156.158 80.1093 156.565 79.7966 157.088 79.6154C157.616 79.4314 158.191 79.4148 158.813 79.5654C159.605 79.7571 160.186 80.1648 160.557 80.7886C160.933 81.4096 161.01 82.1803 160.787 83.1007L159.406 88.8052L157.059 88.2369L158.328 82.9963C158.442 82.5251 158.402 82.1413 158.209 81.8451C158.015 81.5489 157.731 81.3553 157.356 81.2644C156.928 81.161 156.562 81.2165 156.257 81.431C155.953 81.6418 155.747 81.9681 155.64 82.4099L154.386 87.5898L152.105 87.0376L153.386 81.7472C153.487 81.3312 153.447 80.9709 153.268 80.6663C153.092 80.3626 152.811 80.164 152.424 80.0704C152.163 80.0071 151.911 80.0163 151.669 80.098C151.432 80.177 151.224 80.3195 151.045 80.5257C150.868 80.7283 150.741 80.986 150.665 81.2989L149.432 86.3904L147.08 85.8208ZM163.644 90.0009C163.103 89.8699 162.643 89.6592 162.265 89.3689C161.888 89.075 161.621 88.7122 161.465 88.2807C161.313 87.8463 161.304 87.3494 161.44 86.7898C161.554 86.3186 161.736 85.9437 161.987 85.6653C162.237 85.3869 162.535 85.1863 162.881 85.0634C163.226 84.9405 163.601 84.8752 164.004 84.8676C164.411 84.8609 164.829 84.8881 165.259 84.9493C165.764 85.0172 166.174 85.0656 166.486 85.0945C166.8 85.1197 167.036 85.1028 167.194 85.0437C167.353 84.9847 167.454 84.865 167.497 84.6846L167.505 84.6514C167.59 84.3017 167.545 84.0044 167.371 83.7594C167.2 83.5154 166.914 83.3448 166.512 83.2477C166.089 83.1451 165.73 83.1575 165.434 83.2846C165.139 83.4081 164.917 83.5999 164.768 83.8601L162.635 83.1566C162.87 82.6679 163.196 82.275 163.61 81.9779C164.026 81.6772 164.515 81.4875 165.075 81.4089C165.641 81.3276 166.262 81.3689 166.939 81.5329C167.411 81.647 167.848 81.8114 168.252 82.0262C168.66 82.2418 169.003 82.5061 169.282 82.8192C169.565 83.1331 169.759 83.496 169.866 83.9077C169.974 84.3157 169.967 84.7719 169.845 85.2763L168.459 90.9973L166.228 90.4571L166.513 89.2809L166.447 89.2648C166.247 89.4969 166.008 89.6866 165.73 89.8338C165.454 89.9773 165.142 90.0674 164.794 90.104C164.447 90.1369 164.064 90.1025 163.644 90.0009ZM164.711 88.5405C165.057 88.6243 165.379 88.6301 165.677 88.5581C165.976 88.4824 166.229 88.345 166.437 88.1459C166.645 87.9468 166.785 87.6982 166.858 87.4L167.075 86.4999C166.99 86.5299 166.878 86.5496 166.74 86.5589C166.606 86.5654 166.455 86.566 166.289 86.5608C166.124 86.552 165.959 86.5413 165.794 86.5287C165.63 86.5125 165.482 86.4979 165.349 86.4851C165.063 86.4588 164.806 86.4648 164.578 86.5033C164.351 86.5417 164.162 86.6226 164.011 86.7459C163.861 86.8655 163.76 87.0358 163.706 87.2567C163.629 87.577 163.685 87.8499 163.876 88.0754C164.072 88.2981 164.35 88.4531 164.711 88.5405ZM173.824 87.105L172.637 92.0088L170.284 91.4392L172.338 82.957L174.58 83.4999L174.218 84.9964L174.317 85.0205C174.625 84.5726 175.034 84.2586 175.545 84.0784C176.057 83.8945 176.628 83.8788 177.258 84.0312C177.847 84.1739 178.329 84.4271 178.705 84.7908C179.08 85.1546 179.332 85.6052 179.459 86.1426C179.587 86.6764 179.571 87.2728 179.412 87.9317L178.104 93.3325L175.752 92.7629L176.958 87.7818C177.087 87.2636 177.052 86.8266 176.854 86.4707C176.657 86.1111 176.322 85.8742 175.851 85.7601C175.534 85.6835 175.238 85.6839 174.962 85.7612C174.69 85.8395 174.454 85.9929 174.255 86.2213C174.06 86.4469 173.916 86.7415 173.824 87.105Z" fill="#20C58D"/>
<rect x="272.526" y="163.413" width="85.026" height="30.1327" rx="4" transform="rotate(47.2113 272.526 163.413)" stroke="#48C5FC" stroke-width="2"/>
<path d="M279.145 189.706L277.454 187.88C277.66 187.628 277.807 187.366 277.895 187.093C277.986 186.818 278.022 186.539 278.004 186.257C277.985 185.975 277.913 185.696 277.787 185.42C277.663 185.147 277.488 184.889 277.262 184.644C276.853 184.202 276.386 183.919 275.863 183.794C275.343 183.667 274.79 183.706 274.206 183.911C273.625 184.114 273.038 184.489 272.446 185.037C271.837 185.6 271.409 186.164 271.162 186.728C270.918 187.295 270.842 187.84 270.934 188.364C271.027 188.888 271.272 189.365 271.671 189.796C271.895 190.037 272.134 190.232 272.388 190.378C272.645 190.527 272.91 190.626 273.181 190.674C273.455 190.72 273.73 190.713 274.006 190.654C274.284 190.597 274.557 190.485 274.823 190.315L276.506 192.149C276.07 192.465 275.582 192.697 275.043 192.845C274.51 192.993 273.953 193.041 273.373 192.989C272.799 192.938 272.226 192.771 271.656 192.489C271.09 192.207 270.554 191.792 270.047 191.245C269.342 190.483 268.884 189.642 268.673 188.723C268.464 187.806 268.526 186.872 268.858 185.92C269.192 184.97 269.823 184.066 270.752 183.206C271.683 182.344 272.637 181.786 273.615 181.532C274.592 181.277 275.53 181.292 276.427 181.576C277.328 181.858 278.125 182.373 278.82 183.124C279.278 183.619 279.633 184.142 279.885 184.693C280.14 185.247 280.286 185.811 280.323 186.386C280.362 186.959 280.285 187.526 280.092 188.086C279.901 188.65 279.586 189.19 279.145 189.706ZM277.316 199.114C276.717 198.467 276.336 197.779 276.173 197.052C276.017 196.325 276.067 195.604 276.325 194.891C276.586 194.174 277.045 193.512 277.701 192.905C278.362 192.293 279.059 191.885 279.79 191.683C280.525 191.478 281.247 191.483 281.957 191.699C282.672 191.914 283.33 192.345 283.929 192.993C284.529 193.641 284.907 194.328 285.064 195.055C285.226 195.782 285.177 196.504 284.916 197.221C284.658 197.934 284.198 198.597 283.536 199.21C282.88 199.817 282.185 200.223 281.451 200.428C280.719 200.63 279.996 200.624 279.281 200.408C278.57 200.193 277.916 199.762 277.316 199.114ZM278.7 197.849C278.973 198.144 279.284 198.312 279.633 198.355C279.985 198.396 280.354 198.331 280.738 198.161C281.125 197.994 281.505 197.738 281.878 197.393C282.25 197.048 282.535 196.689 282.731 196.316C282.931 195.946 283.024 195.583 283.011 195.229C282.998 194.875 282.855 194.55 282.582 194.256C282.306 193.958 281.99 193.787 281.633 193.741C281.278 193.697 280.907 193.759 280.52 193.927C280.135 194.097 279.757 194.354 279.384 194.699C279.012 195.044 278.726 195.401 278.527 195.772C278.33 196.145 278.24 196.51 278.255 196.867C278.276 197.224 278.425 197.552 278.7 197.849ZM281.428 203.306L287.833 197.377L289.4 199.07L288.27 200.116L288.339 200.191C288.838 199.977 289.34 199.926 289.845 200.036C290.35 200.147 290.803 200.419 291.205 200.853C291.611 201.292 291.847 201.768 291.914 202.279C291.982 202.789 291.878 203.267 291.601 203.715L291.663 203.781C292.15 203.572 292.662 203.537 293.198 203.676C293.74 203.815 294.228 204.119 294.663 204.589C295.216 205.186 295.475 205.848 295.439 206.573C295.408 207.298 295.045 207.982 294.35 208.626L290.043 212.613L288.403 210.84L292.36 207.178C292.715 206.848 292.895 206.507 292.898 206.153C292.901 205.799 292.771 205.481 292.508 205.197C292.21 204.875 291.874 204.718 291.501 204.728C291.131 204.735 290.779 204.893 290.446 205.202L286.535 208.822L284.941 207.1L288.935 203.403C289.249 203.112 289.416 202.79 289.435 202.437C289.456 202.087 289.332 201.766 289.062 201.474C288.879 201.276 288.664 201.145 288.418 201.079C288.176 201.013 287.924 201.017 287.661 201.09C287.401 201.16 287.153 201.305 286.917 201.524L283.072 205.082L281.428 203.306ZM291.342 214.016L297.746 208.087L299.391 209.864L292.986 215.792L291.342 214.016ZM299.398 208.215C299.153 207.951 299.031 207.644 299.031 207.293C299.037 206.942 299.163 206.652 299.411 206.423C299.655 206.196 299.952 206.095 300.299 206.119C300.652 206.144 300.951 206.288 301.195 206.552C301.439 206.816 301.559 207.123 301.553 207.474C301.553 207.825 301.431 208.114 301.186 208.341C300.939 208.57 300.639 208.672 300.286 208.648C299.938 208.624 299.642 208.479 299.398 208.215ZM296.857 220.224C296.249 219.568 295.866 218.875 295.706 218.146C295.552 217.416 295.607 216.694 295.87 215.981C296.136 215.27 296.593 214.615 297.241 214.015C297.897 213.408 298.59 213.002 299.319 212.797C300.053 212.592 300.776 212.596 301.489 212.808C302.205 213.018 302.862 213.447 303.462 214.095C303.979 214.653 304.331 215.237 304.516 215.844C304.702 216.452 304.724 217.048 304.584 217.632C304.443 218.216 304.137 218.75 303.666 219.233L302.114 217.557C302.39 217.213 302.531 216.85 302.538 216.467C302.55 216.085 302.406 215.73 302.105 215.405C301.85 215.13 301.552 214.959 301.212 214.892C300.877 214.826 300.514 214.867 300.125 215.015C299.736 215.164 299.34 215.424 298.937 215.798C298.529 216.176 298.233 216.553 298.049 216.929C297.868 217.308 297.798 217.67 297.838 218.015C297.879 218.359 298.026 218.669 298.281 218.945C298.469 219.147 298.679 219.291 298.912 219.375C299.147 219.462 299.393 219.485 299.649 219.444C299.91 219.403 300.169 219.295 300.425 219.12L301.977 220.796C301.462 221.221 300.908 221.486 300.314 221.592C299.725 221.698 299.134 221.639 298.539 221.415C297.945 221.191 297.384 220.794 296.857 220.224ZM310.193 225.197L308.588 223.664C308.701 223.507 308.771 223.332 308.797 223.137C308.826 222.94 308.804 222.735 308.732 222.523C308.665 222.312 308.537 222.103 308.346 221.897C308.092 221.622 307.818 221.444 307.527 221.363C307.238 221.28 306.997 221.327 306.805 221.504C306.653 221.646 306.58 221.826 306.588 222.047C306.595 222.267 306.705 222.555 306.916 222.912L307.755 224.287C308.204 225.028 308.428 225.683 308.427 226.251C308.427 226.819 308.196 227.317 307.735 227.744C307.315 228.132 306.832 228.35 306.286 228.396C305.743 228.444 305.184 228.337 304.61 228.074C304.041 227.81 303.499 227.401 302.985 226.845C302.2 225.997 301.751 225.158 301.638 224.328C301.531 223.498 301.743 222.757 302.275 222.105L303.984 223.767C303.774 224.059 303.695 224.37 303.747 224.699C303.801 225.025 303.975 225.347 304.269 225.664C304.557 225.975 304.848 226.17 305.143 226.249C305.443 226.327 305.69 226.279 305.884 226.104C306.043 225.952 306.112 225.762 306.091 225.533C306.073 225.302 305.963 225.022 305.762 224.692L304.956 223.379C304.502 222.637 304.288 221.971 304.313 221.38C304.342 220.791 304.595 220.276 305.073 219.833C305.484 219.452 305.942 219.235 306.445 219.182C306.951 219.132 307.472 219.235 308.009 219.492C308.548 219.751 309.072 220.155 309.578 220.703C310.327 221.511 310.746 222.306 310.833 223.087C310.924 223.87 310.71 224.574 310.193 225.197Z" fill="#48C5FC"/>
<rect x="119.142" y="267.067" width="103.096" height="30.1327" rx="4" transform="rotate(3.95012 119.142 267.067)" stroke="#FF627D" stroke-width="2"/>
<path d="M122.395 276.242L125.144 276.432L127.446 281.614L127.56 281.622L130.552 276.806L133.301 276.995L128.549 284.208L128.265 288.312L125.828 288.143L126.111 284.04L122.395 276.242ZM135.893 289.009C135.012 288.949 134.264 288.709 133.647 288.29C133.035 287.868 132.578 287.309 132.277 286.612C131.976 285.912 131.856 285.116 131.918 284.224C131.98 283.325 132.208 282.551 132.602 281.902C132.996 281.25 133.526 280.758 134.19 280.428C134.859 280.095 135.633 279.959 136.514 280.019C137.394 280.08 138.141 280.322 138.753 280.744C139.37 281.162 139.829 281.721 140.129 282.422C140.431 283.119 140.55 283.917 140.488 284.816C140.427 285.708 140.199 286.48 139.804 287.132C139.41 287.781 138.879 288.272 138.21 288.606C137.546 288.936 136.773 289.07 135.893 289.009ZM136.033 287.14C136.434 287.167 136.776 287.077 137.06 286.869C137.344 286.657 137.568 286.357 137.732 285.97C137.899 285.583 138 285.136 138.035 284.629C138.07 284.123 138.031 283.667 137.919 283.26C137.81 282.854 137.63 282.526 137.377 282.277C137.125 282.028 136.798 281.89 136.398 281.862C135.993 281.834 135.645 281.926 135.354 282.138C135.066 282.349 134.838 282.649 134.671 283.036C134.507 283.423 134.408 283.87 134.373 284.377C134.338 284.883 134.375 285.339 134.484 285.745C134.596 286.152 134.78 286.48 135.037 286.729C135.297 286.975 135.629 287.112 136.033 287.14ZM147.599 285.922L147.945 280.923L150.359 281.089L149.758 289.796L147.44 289.636L147.549 288.054L147.458 288.048C147.226 288.545 146.871 288.932 146.393 289.21C145.918 289.489 145.353 289.606 144.7 289.561C144.118 289.52 143.615 289.353 143.191 289.058C142.767 288.763 142.447 288.363 142.232 287.858C142.02 287.354 141.935 286.761 141.978 286.081L142.361 280.537L144.776 280.704L144.423 285.817C144.391 286.331 144.501 286.747 144.752 287.064C145.004 287.381 145.358 287.556 145.816 287.587C146.107 287.607 146.383 287.56 146.646 287.445C146.908 287.327 147.126 287.14 147.299 286.887C147.476 286.633 147.576 286.312 147.599 285.922ZM154.452 285.063L154.104 290.096L151.689 289.929L152.291 281.223L154.592 281.382L154.486 282.918L154.588 282.925C154.816 282.432 155.166 282.053 155.64 281.79C156.114 281.523 156.674 281.412 157.321 281.456C157.925 281.498 158.443 281.667 158.875 281.962C159.306 282.258 159.63 282.66 159.845 283.168C160.061 283.673 160.145 284.263 160.099 284.94L159.716 290.484L157.301 290.317L157.654 285.204C157.695 284.671 157.587 284.246 157.332 283.929C157.077 283.607 156.708 283.43 156.224 283.397C155.899 283.374 155.607 283.424 155.348 283.547C155.093 283.67 154.886 283.86 154.728 284.119C154.573 284.374 154.481 284.689 154.452 285.063ZM165.303 294.332C164.521 294.278 163.858 294.124 163.314 293.87C162.773 293.62 162.35 293.3 162.047 292.911C161.744 292.522 161.559 292.095 161.492 291.631L163.746 291.485C163.802 291.664 163.898 291.834 164.035 291.995C164.172 292.156 164.359 292.291 164.594 292.398C164.833 292.509 165.128 292.577 165.48 292.602C166.005 292.638 166.447 292.539 166.805 292.306C167.166 292.076 167.367 291.663 167.408 291.066L167.518 289.473L167.416 289.466C167.294 289.701 167.119 289.918 166.893 290.119C166.666 290.32 166.382 290.477 166.04 290.59C165.698 290.703 165.297 290.744 164.836 290.712C164.182 290.667 163.597 290.474 163.082 290.135C162.57 289.792 162.177 289.296 161.903 288.647C161.633 287.994 161.531 287.186 161.598 286.222C161.666 285.236 161.883 284.423 162.25 283.784C162.617 283.145 163.078 282.68 163.634 282.388C164.193 282.096 164.792 281.972 165.431 282.016C165.918 282.05 166.32 282.161 166.638 282.35C166.955 282.535 167.206 282.758 167.389 283.017C167.576 283.273 167.717 283.522 167.81 283.764L167.901 283.77L168.002 282.308L170.4 282.473L169.792 291.265C169.741 292.005 169.517 292.613 169.12 293.086C168.723 293.56 168.194 293.9 167.535 294.105C166.879 294.314 166.135 294.39 165.303 294.332ZM165.726 288.951C166.116 288.978 166.451 288.904 166.733 288.73C167.018 288.552 167.245 288.287 167.414 287.934C167.587 287.578 167.691 287.144 167.726 286.634C167.761 286.124 167.72 285.677 167.602 285.293C167.485 284.905 167.297 284.598 167.039 284.371C166.782 284.145 166.458 284.018 166.069 283.991C165.672 283.964 165.33 284.048 165.043 284.245C164.757 284.438 164.53 284.718 164.364 285.086C164.198 285.455 164.098 285.886 164.064 286.381C164.029 286.884 164.069 287.323 164.184 287.699C164.302 288.072 164.489 288.368 164.743 288.587C165.002 288.802 165.33 288.923 165.726 288.951ZM177.461 291.709L174.83 291.527L179.64 280.195L182.802 280.414L186.003 292.299L183.373 292.117L181.083 282.96L180.992 282.954L177.461 291.709ZM177.611 287.134L183.824 287.563L183.691 289.479L177.479 289.05L177.611 287.134ZM190.148 292.727C189.486 292.682 188.899 292.47 188.386 292.093C187.877 291.712 187.489 291.179 187.221 290.492C186.957 289.802 186.859 288.971 186.926 288C186.995 287.002 187.213 286.184 187.58 285.545C187.947 284.902 188.408 284.434 188.964 284.142C189.523 283.847 190.122 283.721 190.761 283.765C191.248 283.799 191.649 283.91 191.962 284.099C192.28 284.284 192.53 284.506 192.714 284.766C192.901 285.022 193.04 285.271 193.129 285.512L193.203 285.517L193.504 281.153L195.913 281.319L195.112 292.928L192.731 292.763L192.827 291.369L192.725 291.362C192.595 291.596 192.418 291.825 192.194 292.048C191.973 292.269 191.694 292.445 191.354 292.577C191.018 292.71 190.616 292.76 190.148 292.727ZM191.046 290.859C191.435 290.885 191.771 290.802 192.054 290.609C192.341 290.413 192.569 290.127 192.74 289.751C192.914 289.376 193.018 288.929 193.054 288.412C193.09 287.894 193.049 287.439 192.932 287.048C192.815 286.656 192.627 286.347 192.37 286.12C192.112 285.894 191.788 285.767 191.399 285.74C191.002 285.713 190.66 285.797 190.374 285.994C190.087 286.19 189.86 286.475 189.694 286.847C189.528 287.219 189.427 287.656 189.393 288.159C189.358 288.665 189.397 289.118 189.509 289.517C189.626 289.912 189.812 290.228 190.065 290.466C190.322 290.7 190.649 290.831 191.046 290.859ZM202.936 289.743L203.281 284.744L205.696 284.91L205.095 293.617L202.777 293.457L202.886 291.875L202.795 291.869C202.563 292.366 202.208 292.753 201.73 293.032C201.255 293.31 200.69 293.427 200.037 293.382C199.455 293.341 198.952 293.174 198.528 292.879C198.104 292.584 197.784 292.184 197.569 291.679C197.357 291.175 197.272 290.582 197.315 289.902L197.698 284.358L200.113 284.525L199.76 289.638C199.728 290.152 199.838 290.568 200.089 290.885C200.341 291.202 200.695 291.377 201.153 291.408C201.444 291.428 201.72 291.381 201.982 291.266C202.245 291.148 202.463 290.962 202.636 290.708C202.813 290.454 202.913 290.133 202.936 289.743ZM210.243 282.308L209.441 293.917L207.026 293.75L207.828 282.142L210.243 282.308ZM216.608 285.664L216.482 287.478L211.239 287.116L211.365 285.302L216.608 285.664ZM212.699 283.298L215.114 283.465L214.553 291.582C214.538 291.805 214.56 291.981 214.619 292.11C214.679 292.236 214.767 292.328 214.885 292.385C215.006 292.443 215.148 292.477 215.311 292.489C215.424 292.496 215.538 292.495 215.653 292.484C215.768 292.469 215.856 292.458 215.917 292.451L216.173 294.274C216.049 294.303 215.876 294.335 215.653 294.369C215.431 294.407 215.162 294.42 214.848 294.41C214.264 294.393 213.759 294.28 213.333 294.072C212.911 293.864 212.592 293.565 212.376 293.174C212.16 292.784 212.073 292.303 212.116 291.733L212.699 283.298Z" fill="#FF627D"/>
<path d="M197.965 174.651L198.199 174.597C199.373 174.355 200.579 174.555 201.617 175.167C202.726 175.822 203.515 176.869 203.835 178.115C204.157 179.362 203.973 180.659 203.32 181.768C202.669 182.871 201.626 183.659 200.385 183.982L200.371 183.986C199.125 184.308 197.826 184.125 196.718 183.471C195.679 182.858 194.921 181.899 194.565 180.754L194.5 180.523C194.178 179.277 194.362 177.978 195.016 176.87C195.668 175.765 196.711 174.978 197.951 174.655L197.965 174.651ZM198.583 177.073C197.986 177.228 197.485 177.607 197.171 178.139C196.856 178.673 196.768 179.296 196.922 179.897C197.077 180.497 197.456 181 197.99 181.315L197.991 181.316C198.523 181.631 199.147 181.719 199.748 181.564L199.754 181.562C200.351 181.406 200.853 181.028 201.167 180.496C201.482 179.964 201.569 179.34 201.414 178.738C201.26 178.139 200.881 177.636 200.347 177.32L200.347 177.319C199.88 177.043 199.344 176.942 198.815 177.024L198.589 177.071L198.583 177.073Z" fill="#69FEC3" stroke="#69FEC3" stroke-width="0.5"/>
<path d="M185.108 177.966L185.349 177.91C187.844 177.4 190.335 178.937 190.979 181.43C191.64 184 190.094 186.628 187.528 187.297L187.515 187.3C185.021 187.943 182.473 186.505 181.712 184.075L181.644 183.837C180.982 181.267 182.529 178.638 185.095 177.969L185.108 177.966ZM185.727 180.389C184.492 180.711 183.747 181.976 184.065 183.213C184.386 184.451 185.653 185.199 186.891 184.88L186.898 184.878C188.132 184.556 188.877 183.291 188.558 182.055C188.239 180.816 186.971 180.068 185.733 180.387L185.727 180.389Z" fill="#69FEC3" stroke="#69FEC3" stroke-width="0.5"/>
<path d="M172.252 181.282L172.486 181.228C173.66 180.985 174.866 181.185 175.904 181.798C177.013 182.452 177.802 183.5 178.122 184.746C178.444 185.992 178.261 187.29 177.607 188.398C176.956 189.503 175.913 190.289 174.672 190.613L174.658 190.616C173.412 190.938 172.113 190.755 171.005 190.101C169.966 189.489 169.208 188.53 168.853 187.385L168.787 187.154C168.465 185.907 168.65 184.608 169.303 183.5C169.955 182.395 170.998 181.609 172.239 181.285L172.252 181.282ZM172.87 183.704C172.273 183.86 171.772 184.239 171.458 184.771C171.144 185.305 171.055 185.927 171.21 186.528C171.365 187.129 171.743 187.633 172.277 187.947L172.278 187.947C172.811 188.262 173.434 188.35 174.035 188.195L174.042 188.193C174.639 188.038 175.14 187.66 175.454 187.128C175.769 186.595 175.856 185.971 175.701 185.37C175.547 184.769 175.168 184.266 174.634 183.952L174.634 183.951C174.168 183.675 173.631 183.573 173.102 183.656L172.876 183.703L172.87 183.704Z" fill="#69FEC3" stroke="#69FEC3" stroke-width="0.5"/>
<path d="M162.318 164.004C162.509 163.4 163.128 163.022 163.763 163.155L163.763 163.156C164.439 163.294 164.874 163.954 164.735 164.63C164.209 167.192 164.275 169.781 164.935 172.331C165.107 172.998 164.706 173.679 164.04 173.853L164.037 173.854C163.41 174.016 162.772 173.673 162.552 173.079L162.514 172.957C161.76 170.036 161.684 167.065 162.286 164.128L162.318 164.004Z" fill="#69FEC3" stroke="#69FEC3" stroke-width="0.5"/>
<path d="M176.603 149.074L176.728 149.048C177.354 148.953 177.964 149.345 178.125 149.972C178.295 150.635 177.903 151.306 177.247 151.488C177.223 151.497 177.202 151.504 177.186 151.507C177.181 151.507 177.177 151.508 177.174 151.509C171.94 152.876 167.753 156.527 165.683 161.537C165.528 161.914 165.207 162.174 164.842 162.269C164.588 162.335 164.311 162.323 164.05 162.215C163.412 161.951 163.109 161.22 163.372 160.581C165.745 154.84 170.547 150.653 176.55 149.088L176.603 149.074Z" fill="#69FEC3" stroke="#69FEC3" stroke-width="0.5"/>
<path d="M175.929 142.76L176.567 142.603C183.174 141.07 190.004 142.116 195.866 145.574L195.866 145.575C201.917 149.146 206.217 154.86 207.971 161.663L208.566 163.965C210.794 163.852 213.037 164.752 214.679 166.462L214.684 166.468C214.711 166.497 214.737 166.528 214.762 166.558L214.835 166.655L214.839 166.66L223.41 179.354C224.441 180.497 224.864 182.079 224.542 183.58L224.468 183.881C224.044 185.381 222.922 186.519 221.455 186.902L208.559 190.265L223.054 209.044L224.716 208.611C225.519 208.402 226.337 208.883 226.546 209.684C226.755 210.484 226.276 211.304 225.473 211.514L219.819 212.988C219.016 213.197 218.198 212.716 217.989 211.915C217.78 211.114 218.259 210.295 219.062 210.085L219.898 209.867L205.404 191.087L191.042 194.832L196.55 215.955L197.925 215.597C198.727 215.387 199.546 215.869 199.755 216.67C199.963 217.471 199.484 218.29 198.682 218.5L193.029 219.974C192.226 220.183 191.408 219.701 191.199 218.901C190.99 218.1 191.469 217.28 192.272 217.071L193.647 216.712L188.139 195.589L173.658 199.365L170.179 222.831L171.016 222.613C171.818 222.404 172.637 222.885 172.846 223.686C173.054 224.487 172.575 225.307 171.773 225.516L166.119 226.99C165.317 227.199 164.498 226.718 164.289 225.917C164.08 225.117 164.56 224.297 165.362 224.087L167.025 223.654L170.505 200.187L157.608 203.55C156.233 203.909 154.799 203.539 153.717 202.585L153.505 202.386C152.338 201.22 151.852 199.52 152.216 197.918L153.498 182.656L153.499 182.654C153.506 182.569 153.521 182.488 153.539 182.413L153.541 182.405C154.139 180.112 155.655 178.233 157.654 177.242L157.025 174.802C155.27 168 156.27 160.917 159.841 154.866C163.398 148.835 169.086 144.544 175.859 142.778L175.929 142.76ZM159.807 179.62C158.216 180.034 156.97 181.296 156.477 183.044L155.196 198.28C155.189 198.368 155.174 198.452 155.154 198.529L155.154 198.532C154.994 199.148 155.174 199.813 155.626 200.264C155.999 200.636 156.443 200.754 156.851 200.647L220.698 183.999C221.107 183.893 221.437 183.574 221.58 183.066L221.58 183.065C221.753 182.452 221.588 181.784 221.147 181.325L221.141 181.319C221.086 181.26 221.037 181.198 220.991 181.132L220.986 181.125L212.428 168.455C211.143 167.17 209.442 166.677 207.851 167.092L159.807 179.62ZM176.616 145.68C170.615 147.244 165.578 151.045 162.425 156.389C159.261 161.751 158.375 168.024 159.93 174.052L160.518 176.334L205.624 164.572L205.067 162.413C203.512 156.384 199.704 151.322 194.341 148.158C189.146 145.092 183.098 144.166 177.243 145.525L176.678 145.664L176.616 145.68Z" fill="#69FEC3" stroke="#69FEC3"/>
<path d="M53.2968 290.402C52.9179 289.745 53.1406 288.902 53.8008 288.519C54.457 288.14 55.3007 288.362 55.6835 289.019L56.953 291.218C57.332 291.874 57.1093 292.718 56.453 293.101C55.7968 293.48 54.953 293.257 54.5702 292.597L53.3008 290.398L53.2968 290.402ZM42.1718 288.089L49.5195 283.847L43.832 273.991C43.25 273.046 42.332 272.401 41.3164 272.132C40.3008 271.858 39.1797 271.96 38.1992 272.491L38.0235 272.597C37.0586 273.183 36.4102 274.105 36.1368 275.124C35.8555 276.179 35.9727 277.339 36.5508 278.343L42.1758 288.089L42.1718 288.089ZM52.082 285.542L43.5468 290.468L75.6878 346.132C76.266 347.136 77.2112 347.815 78.262 348.097C79.3128 348.378 80.469 348.261 81.4768 347.683C82.4846 347.101 83.1643 346.155 83.4456 345.108C83.723 344.077 83.6175 342.944 83.0706 341.956L57.6686 297.96C57.2897 297.304 57.5124 296.46 58.1686 296.077C58.8249 295.698 59.6686 295.921 60.0514 296.577L85.4654 340.6C86.3873 342.245 86.567 344.12 86.1139 345.819C85.649 347.55 84.528 349.104 82.8639 350.069C81.192 351.034 79.2858 351.225 77.5592 350.764C75.8326 350.3 74.274 349.179 73.3131 347.507L40.5081 290.683L40.469 290.62L40.4651 290.616L34.1682 279.71C33.2073 278.046 33.012 276.136 33.4729 274.413C33.9338 272.683 35.0549 271.128 36.7229 270.167L36.8167 270.116C38.4612 269.198 40.3323 269.019 42.0237 269.472C43.7503 269.937 45.3088 271.058 46.2697 272.726L52.5862 283.667C52.9612 284.323 52.7385 285.167 52.0783 285.542L52.082 285.542ZM23.902 270.421C24.6364 270.616 25.0739 271.374 24.8786 272.109C24.6833 272.843 23.9255 273.28 23.1911 273.085L17.0231 271.433C16.2887 271.238 15.8512 270.48 16.0465 269.745C16.2418 269.011 16.9997 268.573 17.734 268.769L23.902 270.421ZM45.011 253.023C45.2064 252.289 45.9642 251.851 46.6985 252.047C47.4329 252.242 47.8704 253 47.6751 253.734L46.0228 259.902C45.8275 260.636 45.0697 261.074 44.3353 260.879C43.6009 260.683 43.1634 259.925 43.3587 259.191L45.011 253.023ZM60.011 263.207C60.6673 262.828 61.511 263.051 61.8938 263.711C62.2728 264.367 62.0501 265.211 61.3938 265.59L55.8626 268.785C55.2064 269.164 54.3626 268.941 53.9798 268.285C53.6009 267.629 53.8236 266.785 54.4798 266.402L60.011 263.207ZM24.585 283.664C25.2413 283.285 26.085 283.512 26.46 284.168C26.835 284.824 26.6124 285.668 25.9522 286.043L20.421 289.234C19.7648 289.613 18.921 289.387 18.546 288.727C18.1671 288.07 18.3937 287.227 19.0538 286.852L24.585 283.66V283.664ZM32.7803 260.59C33.1553 261.246 32.9327 262.09 32.2725 262.465C31.6163 262.84 30.7725 262.617 30.3975 261.957L27.2022 256.426C26.8272 255.77 27.0499 254.926 27.71 254.551C28.3663 254.172 29.21 254.399 29.585 255.059L32.7803 260.59Z" fill="#48C5FC"/>
<path d="M288.88 98.2621C294.689 96.911 318.607 90.8921 327.401 81.6278C330.238 78.6394 331.45 74.6415 331.188 70.7601C331.018 68.2453 330.234 65.7866 328.877 63.6885C327.531 61.6098 325.618 59.883 323.178 58.8059C319.432 57.1535 314.409 57.0157 308.216 59.4348C307.318 59.7872 306.305 59.3447 305.958 58.4443L305.935 58.3799C303.766 52.0956 300.407 48.3576 296.722 46.5748C294.321 45.4134 291.766 45.0745 289.311 45.396C286.834 45.7191 284.451 46.714 282.426 48.2163C279.301 50.5317 277.041 54.0449 276.6 58.141C275.237 70.8434 286.148 92.962 288.882 98.263L288.88 98.2621ZM329.929 84.0367C319.334 95.2028 289.427 101.733 288.347 101.967C287.599 102.142 286.799 101.807 286.419 101.097C286.378 101.017 271.457 73.3398 273.127 57.7757C273.677 52.648 276.481 48.2693 280.358 45.3987C282.85 43.5516 285.792 42.3268 288.871 41.9235C291.971 41.5185 295.201 41.9485 298.241 43.4192C302.357 45.4106 306.097 49.2919 308.619 55.5721C315.037 53.425 320.416 53.7598 324.6 55.6054C327.689 56.9688 330.111 59.1518 331.809 61.775C333.497 64.3795 334.469 67.4163 334.676 70.5114C334.999 75.3234 333.481 80.297 329.931 84.0376L329.929 84.0367Z" fill="#EA5944"/>
</svg>
